<?xml version="1.0" encoding="UTF-8"?>
<svg id="_图层_1" data-name="图层 1" xmlns="http://www.w3.org/2000/svg" viewBox="0 0 156.76 173.27">
  <defs>
    <style>
      .cls-1 {
        fill: #d5c08b;
      }
    </style>
  </defs>
  <path class="cls-1" d="M78.35,0C44.46,0,17.02,26.62,16.87,59.75c0,11.9,3.54,23.22,10.11,32.9l.64,.92,.37,.62,.31,.47c.21,.3,.43,.59,.67,.88l.15,.17,39.1,45.47c4.8,5.58,13.22,6.21,18.8,1.41,.52-.44,1-.93,1.44-1.44l38.88-45.48-.26,.28c.38-.4,.73-.83,1.04-1.29l.3-.46c.12-.19,.36-.6,.36-.59,6.89-9.63,10.76-21.37,10.9-33.75C139.7,26.7,112.18,0,78.35,0Zm0,13.33c26.56,0,48.02,20.82,48.02,46.45-.09,9.45-3.09,18.64-8.59,26.32l-.58,.91-38.87,45.47-39.1-45.47-.38-.62-.19-.28c-5.51-7.67-8.47-16.88-8.46-26.32,.12-25.68,21.52-46.45,48.15-46.45Z"/>
  <path class="cls-1" d="M131.49,126.26c3.01-1.75,6.85-.9,8.84,1.96l.28,.44,14.33,24.56c3.71,6.36,1.57,14.52-4.79,18.24-1.8,1.05-3.83,1.67-5.91,1.79l-.89,.02-130.09-.71C5.9,172.52-.04,166.52,0,159.15c.01-2.05,.49-4.07,1.41-5.9l.42-.77,13.66-23.29c1.85-3.18,5.93-4.26,9.12-2.41,3.02,1.76,4.17,5.55,2.63,8.69l-.25,.46-13.66,23.29,130.09,.71-14.33-24.56c-1.85-3.18-.78-7.26,2.4-9.12Z"/>
  <path class="cls-1" d="M78.4,34.31c-14.73,0-26.67,11.94-26.67,26.67,0,14.73,11.94,26.67,26.67,26.67,14.73,0,26.67-11.94,26.67-26.67,0-14.73-11.94-26.67-26.67-26.67Zm0,13.33c7.37,0,13.34,5.97,13.33,13.34,0,7.37-5.97,13.34-13.34,13.33h0c-7.37,0-13.33-5.97-13.33-13.34,0-7.37,5.97-13.34,13.34-13.33h0Z"/>
</svg>