<?xml version="1.0" encoding="UTF-8"?>
<svg id="_图层_1" data-name="图层 1" xmlns="http://www.w3.org/2000/svg" viewBox="0 0 210.42 63.45">
  <defs>
    <style>
      .cls-1 {
        fill: #0b5c9f;
        fill-rule: evenodd;
      }
    </style>
  </defs>
  <g>
    <path class="cls-1" d="M104.19,9.34c-.97,1.24-2.14,2.3-3.47,3.24-1.37-.97-2.47-2-3.31-3.1l.1-.13h6.68Zm2.87-3.17l-.67,.17h-6.68c.4-.63,.77-1.3,1.07-1.94l-3.64-1c-1.54,3.31-4.47,6.24-7.75,8.01,.83,.6,2.24,1.9,2.87,2.57,1-.63,1.97-1.4,2.97-2.27,.67,.9,1.5,1.8,2.4,2.6-2.6,1.27-5.64,2.14-8.81,2.6,.67,.77,1.5,2.2,1.8,3.1,3.64-.7,7.08-1.84,10.12-3.44,2.4,1.47,5.38,2.67,8.85,3.34,.47-.94,1.44-2.47,2.17-3.21-3-.43-5.61-1.23-7.78-2.27,2.34-1.8,4.21-4.14,5.51-7.04l-2.44-1.24h0Zm-16.63,.83l-2.3,3.24c-1.23-1.1-4.04-2.67-6.04-3.67l2.17-2.9c2,.87,4.77,2.27,6.18,3.34h0Zm-1.7,8.65c-1.37-1-4.14-2.37-6.11-3.14l-2,3.07c2.04,.93,4.74,2.4,6.01,3.47l2.1-3.4h0Zm-2.17,5.37c-1.67,3.84-3.77,8.05-5.31,10.58l3.57,2.3c1.67-3.21,3.44-7.04,4.87-10.55l-3.14-2.34h0Zm6.18,4.74l3.54,.93c-1.13,2.5-2.9,5.04-4.54,6.68-.73-.57-2.24-1.54-3.1-2,1.67-1.44,3.17-3.57,4.11-5.61h0Zm18.29-.94h-8.28v5.81c0,1.74-.37,2.67-1.54,3.24-1.17,.57-2.8,.6-4.94,.6-.17-1.03-.73-2.47-1.2-3.44,1.27,.07,2.74,.07,3.14,.07,.43,0,.6-.13,.6-.53v-5.74h-8.68v-3.44h8.68v-2.9h3.94v2.9h8.28v3.44h0Zm-6.64,2.24c1.54,1.74,3.2,4.21,3.87,5.81l3.24-1.74c-.73-1.6-2.4-3.91-4.01-5.54l-3.1,1.47h0Zm11.52,7.51h4.21V4.57h-4.21v30.01h0Zm12.29-6.21v-8.01h10.62v8.01h-10.62Zm10.62-19.16v7.51h-10.62v-7.51h10.62Zm-14.69-3.71v29.04h4.07v-2.47h10.62v2.2h4.24V5.5h-18.93Zm38.09,5.54h-6.74v-1.4h6.74v1.4h0Zm0,3.91h-6.74v-1.33h6.74v1.33h0Zm0,4.04h-6.74v-1.47h6.74v1.47h0Zm-10.68,3.91h3.94v-.9h21.53v-3h-10.98v-1.47h8.71v-2.57h-8.71v-1.33h8.68v-2.57h-8.68v-1.4h10.18v-3.04h-9.38c-.37-1.07-1-2.37-1.6-3.41l-3.57,1c.37,.73,.73,1.57,1.04,2.4h-5.41c.57-.84,1.1-1.67,1.6-2.5l-4.04-.77c-1.5,2.87-4.21,6.31-7.91,8.95,.9,.5,2.17,1.77,2.8,2.6,.6-.5,1.2-1,1.8-1.54v9.55h0Zm26.31,4.27h-9.45c2.97,1.67,6.78,3.04,10.28,3.81-.84,.77-1.97,2.24-2.47,3.17-3.91-1.1-8.15-3.11-11.45-5.47v5.81h-3.94v-5.64c-3.3,2.37-7.61,4.37-11.52,5.47-.6-.97-1.74-2.44-2.57-3.27,3.64-.77,7.58-2.2,10.68-3.87h-9.58v-3.17h12.99v-1.7h3.94v1.7h13.09v3.17h0Zm27.08-14.29h-4.01v-3.61h-3.81v3.61h-9.55v3.5h8.01c-2.54,3.04-5.88,5.58-8.88,7.18,.87,.7,1.97,1.94,2.47,2.67,2.57-1.37,5.48-3.44,7.95-5.91v4.51c0,.4-.13,.5-.57,.5-.43,.03-1.74,.03-2.97-.03,.5,.97,1.1,2.5,1.27,3.54,2.04,0,3.54-.07,4.64-.67,1.17-.6,1.44-1.5,1.44-3.3v-8.48h4.01v-3.5h0Zm-18.8,16.96V8.27h20V29.84h-20Zm-4.11-25.2h28.41v29.95h-4.31v-1.17h-20v1.17h-4.11V4.64Z"/>
    <path class="cls-1" d="M81.97,59.7c0,.16,.11,.27,.27,.27h6.46c3.11,0,5.19-1.38,6.04-4.01,.29-.9,.45-1.89,.45-5.02s-.16-4.12-.45-5.03c-.85-2.63-2.92-4.01-6.04-4.01h-6.46c-.16,0-.27,.11-.27,.27v17.55h0Zm3.14-2.71v-12.12c0-.11,.05-.16,.16-.16h2.69c1.99,0,3.22,.66,3.75,2.29,.19,.51,.32,1.3,.32,3.94s-.13,3.43-.32,3.93c-.53,1.62-1.76,2.29-3.75,2.29h-2.69c-.11,0-.16-.05-.16-.16h0Zm12.98,1.09c.8,1.2,2.66,2.18,4.71,2.18,3.83,0,6.25-2.29,6.25-6.38v-11.72c0-.16-.11-.27-.27-.27h-2.61c-.16,0-.27,.11-.27,.27v11.72c0,2.37-1.09,3.56-3,3.56-1.06,0-1.97-.58-2.42-1.12-.13-.16-.27-.16-.4-.08l-1.94,1.46c-.13,.11-.13,.24-.05,.37h0Zm27.33-2.18c.93,2.87,3.27,4.36,6.46,4.36s5.5-1.62,6.38-4.44c.29-.9,.43-2.47,.43-3.96v-1.57c0-.16-.11-.27-.27-.27h-5.98c-.16,0-.27,.11-.27,.27v2.13c0,.16,.11,.27,.27,.27h2.98c.11,0,.16,.05,.16,.16,0,1.04-.11,1.78-.29,2.34-.48,1.46-1.83,2.26-3.43,2.26-1.83,0-2.9-.9-3.4-2.37-.21-.66-.32-1.59-.32-4.15s.11-3.48,.32-4.15c.5-1.46,1.57-2.37,3.4-2.37s2.84,.8,3.64,2.23c.05,.11,.19,.19,.35,.13l2.23-.98c.13-.08,.16-.24,.11-.37-.74-2.02-2.92-3.83-6.3-3.83-3.19,0-5.53,1.49-6.46,4.36-.37,1.12-.48,2.13-.48,4.97s.11,3.85,.48,4.97h0Zm31.19,4.07c.19,0,.29-.16,.19-.35l-3.8-7.37c2.07-.77,3.43-2.61,3.43-4.97,0-3.19-2.45-5.4-5.77-5.4h-6.99c-.16,0-.27,.11-.27,.27v17.55c0,.16,.11,.27,.27,.27h2.61c.16,0,.27-.11,.27-.27v-6.89c0-.11,.05-.16,.16-.16h3.11l3.46,7.05c.08,.19,.19,.27,.4,.27h2.95Zm-6.06-10.13h-3.86c-.11,0-.16-.05-.16-.16v-4.81c0-.11,.05-.16,.16-.16h3.86c1.65,0,2.76,1.01,2.76,2.58s-1.12,2.55-2.76,2.55h0Zm16.81,10.42c3.14,0,5.48-1.49,6.41-4.36,.37-1.12,.48-2.13,.48-4.97s-.11-3.85-.48-4.97c-.93-2.87-3.27-4.36-6.41-4.36s-5.45,1.49-6.38,4.36c-.37,1.12-.48,2.13-.48,4.97s.11,3.85,.48,4.97c.93,2.87,3.27,4.36,6.38,4.36h0Zm0-2.82c-1.78,0-2.84-.9-3.35-2.37-.21-.66-.32-1.59-.32-4.15s.11-3.48,.32-4.15c.51-1.46,1.57-2.37,3.35-2.37s2.87,.9,3.38,2.37c.21,.66,.32,1.57,.32,4.15s-.11,3.48-.32,4.15c-.5,1.46-1.57,2.37-3.38,2.37h0Zm18.14,0c-2.05,0-3.51-1.38-3.51-3.88v-11.41c0-.16-.11-.27-.27-.27h-2.61c-.16,0-.27,.11-.27,.27v11.46c0,4.2,2.84,6.65,6.65,6.65s6.67-2.45,6.67-6.65v-11.46c0-.16-.11-.27-.27-.27h-2.61c-.16,0-.27,.11-.27,.27v11.41c0,2.5-1.46,3.88-3.54,3.88h0Zm14.68,2.53c.16,0,.27-.11,.27-.27v-6.41c0-.11,.05-.16,.16-.16h3.75c3.51,0,5.96-2.26,5.96-5.64s-2.45-5.61-5.96-5.61h-6.78c-.16,0-.27,.11-.27,.27v17.55c0,.16,.11,.27,.27,.27h2.61Zm3.99-9.68h-3.56c-.11,0-.16-.05-.16-.16v-5.26c0-.11,.05-.16,.16-.16h3.56c1.86,0,3,1.14,3,2.79s-1.14,2.79-3,2.79Z"/>
  </g>
  <g>
    <path class="cls-1" d="M58.14,14.15c3.35,5.03,5.31,11.08,5.31,17.58,0,17.52-14.21,31.73-31.73,31.73-6.64,0-12.8-2.04-17.89-5.52,.58,0,1.38-.02,1.63-.02,3.2-.1,5.52-.65,7.96-1.64,3.03-1.21,5.77-3.03,7.62-5.79,6.65-9.89,4.39-22.03,8.23-31.54,2.6-6.43,8.84-12.13,15.82-7.6,1.1,.71,2.11,1.67,3.04,2.8Z"/>
    <path class="cls-1" d="M31.73,0c6.29,0,12.15,1.83,17.08,4.99-4.67,.39-8.44,.91-11.95,1.83-7.94,2.07-15.27,6.49-21.59,12.01C9.27,24.08,3.89,30.14,.49,37.29c-.32-1.81-.49-3.67-.49-5.56C0,14.2,14.21,0,31.73,0Z"/>
    <path class="cls-1" d="M5.66,41.97c0,2.64-.14,3.2,1.08,5.63,4.39,8.82,15.84,6.85,20.93-.5,6-8.68,2.56-27.92,11-36.63,1.11-1.15,2.43-2.07,3.76-2.94-5.87,1.37-10.76,4.48-15.37,7.6-3.47,2.35-7.93,6.14-11.75,10.21-3.26,3.48-9.63,11.74-9.63,16.64Z"/>
  </g>
</svg>