<svg id="图层_1" data-name="图层 1" xmlns="http://www.w3.org/2000/svg" viewBox="0 0 210.42 63.45"><defs><style>.cls-1{fill:#231815;}.cls-1,.cls-2,.cls-3,.cls-4,.cls-5{fill-rule:evenodd;}.cls-2{fill:#898989;}.cls-3{fill:#0061aa;}.cls-4{fill:#ea9a2d;}.cls-5{fill:#006937;}</style></defs><path class="cls-1" d="M104.19,9.34a15.77,15.77,0,0,1-3.47,3.24,15,15,0,0,1-3.31-3.1l.11-.14Zm2.87-3.17-.66.17H99.72a18.7,18.7,0,0,0,1.07-1.94l-3.64-1a18.33,18.33,0,0,1-7.75,8A26.79,26.79,0,0,1,92.27,14a24.52,24.52,0,0,0,3-2.27,17.19,17.19,0,0,0,2.4,2.61,30.44,30.44,0,0,1-8.81,2.6A11.35,11.35,0,0,1,90.64,20a36.44,36.44,0,0,0,10.11-3.44,26.69,26.69,0,0,0,8.85,3.34,15.35,15.35,0,0,1,2.17-3.21A26.83,26.83,0,0,1,104,14.45a18.07,18.07,0,0,0,5.51-7l-2.44-1.24ZM90.44,7l-2.31,3.23a33.89,33.89,0,0,0-6-3.67l2.17-2.9A35.31,35.31,0,0,1,90.44,7Zm-1.7,8.64a32.87,32.87,0,0,0-6.11-3.14l-2,3.08a31.67,31.67,0,0,1,6,3.47l2.11-3.41ZM86.57,21a101.46,101.46,0,0,1-5.31,10.58l3.57,2.3c1.67-3.2,3.44-7,4.87-10.55L86.57,21Zm6.17,4.74,3.54.93a24,24,0,0,1-4.54,6.68,27.88,27.88,0,0,0-3.1-2,17.34,17.34,0,0,0,4.1-5.61Zm18.3-.94h-8.28v5.81c0,1.74-.37,2.67-1.54,3.24s-2.8.6-4.94.6A14.66,14.66,0,0,0,95.08,31c1.27.07,2.74.07,3.14.07s.6-.13.6-.53V24.83H90.14V21.39h8.68v-2.9h3.94v2.9H111v3.44Zm-6.65,2.24a25.21,25.21,0,0,1,3.88,5.81l3.23-1.74a22.87,22.87,0,0,0-4-5.54l-3.11,1.47Zm11.52,7.51h4.21v-30h-4.21v30Zm12.29-6.21v-8h10.61v8ZM138.81,9.21v7.51H128.2V9.21ZM124.12,5.5V34.55h4.08V32.08h10.61v2.2h4.24V5.5Zm38.09,5.55h-6.74V9.64h6.74v1.41Zm0,3.9h-6.74V13.62h6.74V15Zm0,4h-6.74V17.52h6.74V19ZM151.53,22.9h3.94V22H177V19H166V17.52h8.71V15H166V13.62h8.68V11.05H166V9.64H176.2v-3h-9.38a21.44,21.44,0,0,0-1.6-3.41l-3.57,1a24.24,24.24,0,0,1,1,2.41h-5.41c.57-.84,1.11-1.67,1.61-2.51l-4-.77a26.53,26.53,0,0,1-7.92,9,11.56,11.56,0,0,1,2.81,2.6c.6-.5,1.2-1,1.8-1.53V22.9Zm26.31,4.27h-9.45A39.16,39.16,0,0,0,178.67,31a14.58,14.58,0,0,0-2.47,3.17,38.62,38.62,0,0,1-11.45-5.48v5.81h-3.94V28.84a38.74,38.74,0,0,1-11.52,5.47A22,22,0,0,0,146.72,31a42.15,42.15,0,0,0,10.69-3.87h-9.58V24h13V22.3h3.94V24h13.09v3.17Zm27.07-14.29h-4V9.28H197.1v3.6h-9.55v3.51h8a31,31,0,0,1-8.88,7.17,15.55,15.55,0,0,1,2.47,2.68,34.78,34.78,0,0,0,7.94-5.91v4.5c0,.4-.13.5-.57.5a27.69,27.69,0,0,1-3,0,14.17,14.17,0,0,1,1.27,3.54c2,0,3.54-.07,4.64-.67s1.44-1.5,1.44-3.3V16.39h4V12.88Zm-18.79,17V8.27h20V29.84ZM182,4.64h28.41V34.58h-4.3V33.41h-20v1.17H182Z"/><path class="cls-2" d="M82,59.7a.25.25,0,0,0,.27.26H88.7c3.11,0,5.18-1.38,6-4,.29-.91.45-1.89.45-5s-.16-4.12-.45-5c-.85-2.63-2.92-4-6-4H82.24a.26.26,0,0,0-.27.27V59.7ZM85.11,57V44.86a.14.14,0,0,1,.16-.16H88c2,0,3.22.67,3.75,2.29.19.5.32,1.3.32,3.93a12.33,12.33,0,0,1-.32,3.94C91.17,56.48,90,57.14,88,57.14H85.27a.14.14,0,0,1-.16-.16Zm13,1.09a5.8,5.8,0,0,0,4.7,2.18c3.83,0,6.25-2.28,6.25-6.38V42.15a.26.26,0,0,0-.27-.27h-2.6a.26.26,0,0,0-.27.27V53.87c0,2.37-1.09,3.57-3,3.57a3.31,3.31,0,0,1-2.42-1.12.28.28,0,0,0-.4-.08L98.14,57.7a.26.26,0,0,0,0,.37Zm27.33-2.18c.93,2.88,3.27,4.36,6.46,4.36a6.28,6.28,0,0,0,6.38-4.44,15,15,0,0,0,.42-4V50.28a.24.24,0,0,0-.26-.26h-6a.25.25,0,0,0-.27.26v2.13a.26.26,0,0,0,.27.27h3a.14.14,0,0,1,.16.16,7.42,7.42,0,0,1-.29,2.34,3.41,3.41,0,0,1-3.43,2.26,3.29,3.29,0,0,1-3.4-2.37,14.57,14.57,0,0,1-.32-4.15,14.42,14.42,0,0,1,.32-4.15,3.28,3.28,0,0,1,3.4-2.36,3.84,3.84,0,0,1,3.64,2.23.27.27,0,0,0,.35.13l2.23-1a.29.29,0,0,0,.11-.37c-.74-2-2.93-3.83-6.3-3.83-3.19,0-5.53,1.49-6.46,4.36a14.7,14.7,0,0,0-.48,5c0,2.85.11,3.86.48,5ZM156.61,60a.21.21,0,0,0,.19-.34L153,52.25a5.13,5.13,0,0,0,3.43-5c0-3.19-2.44-5.4-5.77-5.4h-7a.25.25,0,0,0-.26.27V59.7a.24.24,0,0,0,.26.26h2.61a.24.24,0,0,0,.26-.26V52.81a.14.14,0,0,1,.16-.16h3.11l3.46,7.05a.38.38,0,0,0,.4.26Zm-6.06-10.13h-3.86a.14.14,0,0,1-.16-.16V44.86a.14.14,0,0,1,.16-.16h3.86a2.57,2.57,0,1,1,0,5.13Zm16.81,10.42c3.13,0,5.47-1.48,6.4-4.36.38-1.11.48-2.12.48-5s-.1-3.85-.48-5c-.93-2.87-3.27-4.36-6.4-4.36S161.91,43.08,161,46c-.38,1.12-.48,2.13-.48,5s.1,3.86.48,5c.93,2.88,3.27,4.36,6.38,4.36Zm0-2.81A3.26,3.26,0,0,1,164,55.07a14.18,14.18,0,0,1-.32-4.15,14,14,0,0,1,.32-4.15,3.57,3.57,0,0,1,6.72,0,14,14,0,0,1,.32,4.15,14.18,14.18,0,0,1-.32,4.15,3.27,3.27,0,0,1-3.37,2.37Zm18.13,0c-2,0-3.51-1.39-3.51-3.89V42.15a.25.25,0,0,0-.26-.27h-2.61a.25.25,0,0,0-.26.27V53.61a6.25,6.25,0,0,0,6.64,6.64c3.83,0,6.68-2.44,6.68-6.64V42.15a.26.26,0,0,0-.27-.27h-2.6a.26.26,0,0,0-.27.27v11.4c0,2.5-1.46,3.89-3.54,3.89ZM200.18,60a.25.25,0,0,0,.26-.26V53.29a.14.14,0,0,1,.16-.16h3.75c3.51,0,6-2.26,6-5.64s-2.44-5.61-6-5.61h-6.78a.26.26,0,0,0-.27.27V59.7a.25.25,0,0,0,.27.26Zm4-9.68H200.6a.14.14,0,0,1-.16-.16V44.86a.14.14,0,0,1,.16-.16h3.56a2.8,2.8,0,1,1,0,5.58Z"/><path class="cls-3" d="M58.14,14.15a31.73,31.73,0,0,1-44.3,43.78l1.63,0a21.86,21.86,0,0,0,8-1.64,16,16,0,0,0,7.62-5.79c6.65-9.88,4.39-22,8.23-31.53,2.6-6.44,8.84-12.13,15.82-7.6A13.49,13.49,0,0,1,58.14,14.15Z"/><path class="cls-4" d="M31.73,0A31.54,31.54,0,0,1,48.81,5a69.47,69.47,0,0,0-12,1.83c-7.93,2.07-15.27,6.49-21.58,12C9.27,24.08,3.89,30.14.49,37.29A31.73,31.73,0,0,1,31.73,0Z"/><path class="cls-5" d="M5.66,42c0,2.64-.13,3.2,1.08,5.63,4.39,8.82,15.84,6.85,20.92-.5,6-8.69,2.56-27.92,11-36.63a22.32,22.32,0,0,1,3.76-3C36.55,8.89,31.66,12,27.05,15.12A75.43,75.43,0,0,0,15.3,25.33C12,28.81,5.66,37.07,5.66,42Z"/></svg>