<?xml version="1.0" encoding="utf-8"?>
<!-- Generator: Adobe Illustrator 27.0.0, SVG Export Plug-In . SVG Version: 6.00 Build 0)  -->
<svg version="1.1" id="图层_1" xmlns="http://www.w3.org/2000/svg" xmlns:xlink="http://www.w3.org/1999/xlink" x="0px" y="0px"
	 viewBox="0 0 210.4 63.5" style="enable-background:new 0 0 210.4 63.5;" xml:space="preserve">
<style type="text/css">
	.st0{fill-rule:evenodd;clip-rule:evenodd;fill:#D7C67D;}
</style>
<path class="st0" d="M104.2,9.3c-1,1.2-2.2,2.3-3.5,3.2c-1.3-0.9-2.4-1.9-3.3-3.1l0.1-0.1L104.2,9.3z M107.1,6.2l-0.7,0.2h-6.7
	c0.4-0.6,0.8-1.3,1.1-1.9l-3.6-1c-1.7,3.4-4.4,6.2-7.8,8c1,0.8,2,1.7,2.9,2.6c1.1-0.7,2.1-1.4,3-2.3c0.7,1,1.5,1.8,2.4,2.6
	c-2.8,1.3-5.8,2.2-8.8,2.6c0.7,0.9,1.4,2,1.8,3.1c3.5-0.6,6.9-1.8,10.1-3.4c2.7,1.6,5.7,2.8,8.8,3.3c0.6-1.2,1.3-2.2,2.2-3.2
	c-2.7-0.3-5.3-1.1-7.8-2.2c2.4-1.8,4.3-4.2,5.5-7L107.1,6.2L107.1,6.2z M90.4,7l-2.3,3.2c-1.9-1.4-3.9-2.7-6-3.7l2.2-2.9
	C86.5,4.6,88.5,5.7,90.4,7z M88.7,15.6c-1.9-1.3-4-2.3-6.1-3.1l-2,3.1c2.1,0.9,4.1,2.1,6,3.5C86.6,19,88.7,15.6,88.7,15.6z M86.6,21
	c-1.6,3.6-3.3,7.2-5.3,10.6l3.6,2.3c1.7-3.2,3.4-7,4.9-10.5L86.6,21z M92.7,25.7l3.5,0.9c-1.1,2.5-2.7,4.7-4.5,6.7
	c-1-0.7-2-1.4-3.1-2C90.4,29.8,91.8,27.9,92.7,25.7z M111,24.8h-8.3v5.8c0,1.7-0.4,2.7-1.5,3.2s-2.8,0.6-4.9,0.6
	c-0.3-1.2-0.7-2.4-1.2-3.4c1.3,0.1,2.7,0.1,3.1,0.1s0.6-0.1,0.6-0.5v-5.7h-8.7v-3.4h8.7v-2.9h3.9v2.9h8.2L111,24.8L111,24.8z
	 M104.4,27c1.6,1.7,2.9,3.7,3.9,5.8l3.2-1.7c-1-2-2.4-3.9-4-5.5L104.4,27z M115.9,34.5h4.2v-30h-4.2V34.5z M128.2,28.3v-8h10.6v8
	H128.2z M138.8,9.2v7.5h-10.6V9.2H138.8z M124.1,5.5v29h4.1v-2.5h10.6v2.2h4.2V5.5H124.1z M162.2,11.1h-6.7V9.6h6.7V11.1z M162.2,15
	h-6.7v-1.3h6.7V15L162.2,15z M162.2,19h-6.7v-1.4h6.7V19L162.2,19z M151.5,22.9h3.9V22H177v-3h-11v-1.5h8.7V15H166v-1.4h8.7v-2.6
	H166V9.6h10.2v-3h-9.4c-0.4-1.2-1-2.3-1.6-3.4l-3.6,1c0.4,0.8,0.7,1.6,1,2.4h-5.4c0.6-0.8,1.1-1.7,1.6-2.5l-4-0.8
	c-1.9,3.6-4.6,6.6-7.9,9c1.1,0.7,2,1.6,2.8,2.6c0.6-0.5,1.2-1,1.8-1.5L151.5,22.9L151.5,22.9z M177.8,27.2h-9.4
	c3.2,1.8,6.7,3,10.3,3.8c-1,0.9-1.8,2-2.5,3.2c-4.1-1.2-8-3-11.4-5.5v5.8h-3.9v-5.7c-3.5,2.4-7.4,4.3-11.5,5.5
	c-0.7-1.2-1.6-2.3-2.6-3.3c3.7-0.8,7.3-2.1,10.7-3.9h-9.6V24h13v-1.7h3.9V24h13.1L177.8,27.2L177.8,27.2z M204.9,12.9h-4V9.3h-3.8
	v3.6h-9.6v3.5h8c-2.5,2.9-5.5,5.4-8.9,7.2c0.9,0.8,1.8,1.7,2.5,2.7c2.9-1.6,5.6-3.6,7.9-5.9v4.5c0,0.4-0.1,0.5-0.6,0.5
	c-1,0.1-2,0.1-3,0c0.6,1.1,1,2.3,1.3,3.5c2,0,3.5-0.1,4.6-0.7s1.4-1.5,1.4-3.3v-8.5h4L204.9,12.9L204.9,12.9z M186.1,29.9V8.3h20
	v21.6L186.1,29.9z M182,4.6h28.4v29.9h-4.3v-1.2h-20v1.2H182V4.6z"/>
<path class="st0" d="M82,59.7c0,0.1,0.1,0.3,0.2,0.3c0,0,0,0,0,0h6.4c3.1,0,5.2-1.4,6-4c0.3-0.9,0.4-1.9,0.4-5s-0.2-4.1-0.4-5
	c-0.8-2.6-2.9-4-6-4h-6.5c-0.1,0-0.3,0.1-0.3,0.2c0,0,0,0,0,0L82,59.7L82,59.7z M85.1,57V44.9c0-0.1,0-0.1,0.1-0.2c0,0,0,0,0,0H88
	c2,0,3.2,0.7,3.8,2.3c0.2,0.5,0.3,1.3,0.3,3.9c0.1,1.3,0,2.7-0.3,3.9c-0.6,1.6-1.8,2.3-3.8,2.3h-2.7C85.2,57.2,85.1,57.1,85.1,57
	C85.1,57,85.1,57,85.1,57L85.1,57z M98.1,58.1c1.1,1.4,2.9,2.2,4.7,2.2c3.8,0,6.2-2.3,6.2-6.4V42.2c0-0.1-0.1-0.3-0.2-0.3
	c0,0,0,0,0,0h-2.6c-0.1,0-0.3,0.1-0.3,0.2c0,0,0,0,0,0v11.7c0,2.4-1.1,3.6-3,3.6c-0.9,0-1.8-0.4-2.4-1.1c-0.1-0.1-0.3-0.2-0.4-0.1
	c0,0,0,0,0,0l-2,1.5C98,57.8,98,58,98.1,58.1C98.1,58.1,98.1,58.1,98.1,58.1L98.1,58.1z M125.4,55.9c0.9,2.9,3.3,4.4,6.5,4.4
	c2.9,0.2,5.5-1.7,6.4-4.4c0.3-1.3,0.5-2.7,0.4-4v-1.6c0-0.1-0.1-0.2-0.2-0.3c0,0,0,0,0,0h-6c-0.1,0-0.3,0.1-0.3,0.2c0,0,0,0,0,0v2.1
	c0,0.1,0.1,0.3,0.2,0.3c0,0,0,0,0,0h3c0.1,0,0.1,0,0.2,0.1c0,0,0,0,0,0c0,0.8-0.1,1.6-0.3,2.3c-0.5,1.4-1.9,2.4-3.4,2.3
	c-1.6,0.1-3-0.9-3.4-2.4c-0.3-1.4-0.4-2.8-0.3-4.2c-0.1-1.4,0-2.8,0.3-4.2c0.4-1.5,1.9-2.5,3.4-2.4c1.6-0.1,3,0.8,3.6,2.2
	c0.1,0.1,0.2,0.2,0.4,0.1l2.2-1c0.1-0.1,0.2-0.2,0.1-0.4c-0.7-2-2.9-3.8-6.3-3.8c-3.2,0-5.5,1.5-6.5,4.4c-0.4,1.6-0.6,3.3-0.5,5
	C125,53.8,125.1,54.8,125.4,55.9L125.4,55.9z M156.6,60c0.1,0,0.2-0.1,0.2-0.2c0-0.1,0-0.1,0-0.2l-3.8-7.4c2.1-0.7,3.5-2.8,3.4-5
	c0-3.2-2.4-5.4-5.8-5.4h-7c-0.1,0-0.3,0.1-0.3,0.2c0,0,0,0,0,0v17.6c0,0.1,0.1,0.2,0.2,0.3c0,0,0,0,0,0h2.6c0.1,0,0.2-0.1,0.3-0.2
	c0,0,0,0,0,0v-6.9c0-0.1,0-0.1,0.1-0.2c0,0,0,0,0,0h3.1l3.5,7c0.1,0.2,0.2,0.3,0.4,0.3L156.6,60z M150.6,49.9h-3.9
	c-0.1,0-0.1,0-0.2-0.1c0,0,0,0,0,0v-4.8c0-0.1,0-0.1,0.1-0.2c0,0,0,0,0,0h3.9c1.4-0.1,2.6,1,2.7,2.4c0.1,1.4-1,2.6-2.4,2.7
	C150.8,49.8,150.7,49.8,150.6,49.9L150.6,49.9z M167.4,60.3c3.1,0,5.5-1.5,6.4-4.4c0.4-1.1,0.5-2.1,0.5-5s-0.1-3.8-0.5-5
	c-0.9-2.9-3.3-4.4-6.4-4.4s-5.4,1.5-6.4,4.4c-0.4,1.1-0.5,2.1-0.5,5s0.1,3.9,0.5,5C161.9,58.9,164.3,60.4,167.4,60.3L167.4,60.3z
	 M167.4,57.5c-1.6,0.1-3-0.9-3.4-2.4c-0.3-1.4-0.4-2.8-0.3-4.2c-0.1-1.4,0-2.8,0.3-4.2c0.7-1.9,2.7-2.8,4.6-2.2
	c1,0.4,1.8,1.2,2.2,2.2c0.3,1.4,0.4,2.8,0.3,4.2c0.1,1.4,0,2.8-0.3,4.2C170.3,56.6,168.9,57.5,167.4,57.5L167.4,57.5z M185.5,57.5
	c-2,0-3.5-1.4-3.5-3.9V42.2c0-0.1-0.1-0.3-0.2-0.3c0,0,0,0,0,0h-2.6c-0.1,0-0.3,0.1-0.3,0.2c0,0,0,0,0,0v11.5
	c-0.2,3.4,2.4,6.4,5.8,6.6c0.3,0,0.5,0,0.8,0c3.8,0,6.7-2.4,6.7-6.6V42.2c0-0.1-0.1-0.3-0.2-0.3c0,0,0,0,0,0h-2.6
	c-0.1,0-0.3,0.1-0.3,0.2c0,0,0,0,0,0v11.4C189,56.1,187.6,57.4,185.5,57.5L185.5,57.5z M200.2,60c0.1,0,0.3-0.1,0.3-0.2c0,0,0,0,0,0
	v-6.5c0-0.1,0-0.1,0.1-0.2c0,0,0,0,0,0h3.8c3.5,0,6-2.3,6-5.6s-2.4-5.6-6-5.6h-6.8c-0.1,0-0.3,0.1-0.3,0.2c0,0,0,0,0,0v17.5
	c0,0.1,0.1,0.3,0.2,0.3c0,0,0,0,0,0L200.2,60z M204.2,50.3h-3.6c-0.1,0-0.1,0-0.2-0.1c0,0,0,0,0,0v-5.3c0-0.1,0-0.1,0.1-0.2
	c0,0,0,0,0,0h3.6c1.5-0.1,2.9,1,3,2.6c0.1,1.5-1,2.9-2.6,3C204.5,50.3,204.3,50.3,204.2,50.3L204.2,50.3z"/>
<path class="st0" d="M58.1,14.1c9.7,14.6,5.7,34.3-8.9,44c-10.8,7.1-24.8,7.1-35.4-0.2h1.6c2.7,0,5.5-0.6,8-1.6
	c3.1-1.1,5.7-3.1,7.6-5.8c6.7-9.9,4.4-22,8.2-31.5c2.6-6.4,8.8-12.1,15.8-7.6C56.3,12.1,57.3,13.1,58.1,14.1z"/>
<path class="st0" d="M31.7,0c6.1,0,12,1.7,17.1,5c-4,0.3-8.1,0.9-12,1.8c-7.9,2.1-15.3,6.5-21.6,12c-6,5.2-11.3,11.3-14.7,18.5
	C-2.6,20,8.9,3.6,26.2,0.5C28,0.2,29.9,0,31.7,0z"/>
<path class="st0" d="M5.7,42c0,2.6-0.1,3.2,1.1,5.6c4.4,8.8,15.8,6.8,20.9-0.5c6-8.7,2.6-27.9,11-36.6c1.1-1.1,2.4-2.1,3.8-3
	C36.5,8.9,31.7,12,27,15.1c-4.3,3-8.2,6.4-11.7,10.2C12,28.8,5.7,37.1,5.7,42z"/>
</svg>
