<?xml version="1.0" encoding="UTF-8"?>
<svg id="_图层_1" data-name="图层 1" xmlns="http://www.w3.org/2000/svg" viewBox="0 0 162.5 129.16">
  <defs>
    <style>
      .cls-1 {
        fill: #d5c08b;
      }
    </style>
  </defs>
  <path class="cls-1" d="M21.25,129.16c-11.74,0-21.25-9.51-21.25-21.25V21.25C0,9.51,9.51,0,21.25,0h120c11.74,0,21.25,9.51,21.25,21.25V107.91c0,11.74-9.51,21.25-21.25,21.25H21.25Zm0-12.5h120c4.83,0,8.75-3.92,8.75-8.75V21.25c0-4.83-3.92-8.75-8.75-8.75H21.25c-4.83,0-8.75,3.92-8.75,8.75V107.91c0,4.84,3.92,8.75,8.75,8.75Z"/>
  <path class="cls-1" d="M8.51,40.2c-3.1-1.51-4.39-5.26-2.88-8.36,1.51-3.1,5.26-4.39,8.36-2.88L79.61,60.99c1.03,.5,2.25,.5,3.28,0L148.51,28.96c3.1-1.51,6.85-.22,8.36,2.88,1.51,3.1,.22,6.85-2.88,8.36h0l-65.61,32.02c-4.5,2.2-9.76,2.2-14.26,0L8.51,40.2Z"/>
</svg>