<?xml version="1.0" encoding="UTF-8"?>
<svg id="_图层_1" data-name="图层 1" xmlns="http://www.w3.org/2000/svg" viewBox="0 0 174.8 174.8">
  <defs>
    <style>
      .cls-1 {
        fill: #d5c08b;
      }
    </style>
  </defs>
  <path class="cls-1" d="M160.84,37.5h-10.84V9.67c0-5.33-4.34-9.67-9.67-9.67H34.86c-5.33,0-9.67,4.34-9.67,9.67v27.83H13.96c-7.7,0-13.96,6.26-13.96,13.96v78.12c0,7.7,6.26,13.96,13.96,13.96h11.04v21.58c0,5.33,4.34,9.67,9.67,9.67h105.47c5.33,0,9.67-4.34,9.67-9.67v-21.58h11.04c7.7,0,13.96-6.26,13.96-13.96V51.46c0-7.7-6.26-13.96-13.96-13.96ZM37.5,12.3h100.2v25.2H37.5V12.3Zm100,150.2H37.3v-50.2h100.2v50.2Zm25-32.91c0,.92-.74,1.66-1.66,1.66h-11.04v-21.58c0-5.33-4.34-9.67-9.67-9.67H34.67c-5.33,0-9.67,4.34-9.67,9.67v21.58H13.96c-.92,0-1.66-.74-1.66-1.66V51.46c0-.92,.74-1.66,1.66-1.66H160.84c.92,0,1.66,.74,1.66,1.66v78.12Z"/>
  <path class="cls-1" d="M33.79,62.5h-5.47c-1.94,0-3.52,1.57-3.52,3.52v5.47c0,1.94,1.57,3.52,3.52,3.52h5.47c1.94,0,3.52-1.57,3.52-3.52v-5.47c0-1.94-1.57-3.52-3.52-3.52Zm25.2,0h-5.47c-1.94,0-3.52,1.57-3.52,3.52v5.47c0,1.94,1.57,3.52,3.52,3.52h5.47c1.94,0,3.52-1.57,3.52-3.52v-5.47c0-1.94-1.57-3.52-3.52-3.52Z"/>
</svg>