<?xml version="1.0" encoding="utf-8"?>
<!-- Generator: Adobe Illustrator 27.0.0, SVG Export Plug-In . SVG Version: 6.00 Build 0)  -->
<svg version="1.1" id="图层_1" xmlns="http://www.w3.org/2000/svg" xmlns:xlink="http://www.w3.org/1999/xlink" x="0px" y="0px"
	 viewBox="0 0 200 200" style="enable-background:new 0 0 200 200;" xml:space="preserve">
<style type="text/css">
	.st0{fill:#333333;}
</style>
<path class="st0" d="M141,68.4c5.2,0,9.4-4.2,9.4-9.4s-4.2-9.4-9.4-9.4s-9.4,4.2-9.4,9.4S135.8,68.4,141,68.4z M59,68.4
	c5.2,0,9.4-4.2,9.4-9.4s-4.2-9.4-9.4-9.4s-9.4,4.2-9.4,9.4S53.8,68.4,59,68.4z M59,150.4c5.2,0,9.4-4.2,9.4-9.4s-4.2-9.4-9.4-9.4
	s-9.4,4.2-9.4,9.4S53.8,150.4,59,150.4z M85.2,25H32.8c-4.3,0-7.8,3.5-7.8,7.8v52.3c0,4.3,3.5,7.8,7.8,7.8h52.3
	c4.3,0,7.8-3.5,7.8-7.8V32.8C93,28.5,89.5,25,85.2,25z M78.9,78.9H39.1V39.1h39.8V78.9z M85.2,107H32.8c-4.3,0-7.8,3.5-7.8,7.8v52.3
	c0,4.3,3.5,7.8,7.8,7.8h52.3c4.3,0,7.8-3.5,7.8-7.8v-52.3C93,110.5,89.5,107,85.2,107z M78.9,160.9H39.1v-39.8h39.8V160.9z
	 M167.2,25h-52.3c-4.3,0-7.8,3.5-7.8,7.8v52.3c0,4.3,3.5,7.8,7.8,7.8h52.3c4.3,0,7.8-3.5,7.8-7.8V32.8C175,28.5,171.5,25,167.2,25z
	 M160.9,78.9h-39.8V39.1h39.8V78.9z M174.2,107.2h-10.9c-0.4,0-0.8,0.3-0.8,0.8v32.8c0,0.4,0.3,0.8,0.8,0.8h10.9
	c0.4,0,0.8-0.3,0.8-0.8V108C175,107.6,174.7,107.2,174.2,107.2z M107.8,119.7h28.1c0.4,0,0.8-0.3,0.8-0.8V108c0-0.4-0.3-0.8-0.8-0.8
	h-28.1c-0.4,0-0.8,0.3-0.8,0.8v10.9C107,119.4,107.4,119.7,107.8,119.7z M118.8,126.2h-10.9c-0.4,0-0.8,0.3-0.8,0.8v12.9
	c0,0.4,0.3,0.8,0.8,0.8h10.9c0.4,0,0.8-0.3,0.8-0.8V127C119.5,126.5,119.2,126.2,118.8,126.2z M155.1,134.6c0.4,0,0.8-0.3,0.8-0.8
	V108c0-0.4-0.3-0.8-0.8-0.8h-10.9c-0.4,0-0.8,0.3-0.8,0.8v25.8c0,0.4,0.3,0.8,0.8,0.8H155.1z M118.8,147.4h-10.9
	c-0.4,0-0.8,0.3-0.8,0.8v26c0,0.4,0.3,0.8,0.8,0.8h10.9c0.4,0,0.8-0.3,0.8-0.8v-26C119.5,147.7,119.2,147.4,118.8,147.4z
	 M155.9,154.3v-11.7c0-0.4-0.3-0.8-0.8-0.8H127c-0.4,0-0.8,0.3-0.8,0.8v25c0,0.4,0.3,0.8,0.8,0.8h10.9c0.4,0,0.8-0.3,0.8-0.8v-12.5
	h16.4C155.5,155.1,155.9,154.7,155.9,154.3z M174.2,148.3h-10.9c-0.4,0-0.8,0.3-0.8,0.8v12.6h-16.4c-0.4,0-0.8,0.3-0.8,0.8v11.7
	c0,0.4,0.3,0.8,0.8,0.8h28.1c0.4,0,0.8-0.3,0.8-0.8v-25.1C175,148.7,174.7,148.3,174.2,148.3z"/>
</svg>
