<?xml version="1.0" standalone="no"?><!DOCTYPE svg PUBLIC "-//W3C//DTD SVG 1.1//EN" "http://www.w3.org/Graphics/SVG/1.1/DTD/svg11.dtd"><svg t="1690983298707" class="icon" viewBox="0 0 1024 1024" version="1.1" xmlns="http://www.w3.org/2000/svg" p-id="4180" xmlns:xlink="http://www.w3.org/1999/xlink" width="200" height="200"><path d="M742.4 614.4c84.992 0 153.6 68.608 153.6 153.6s-68.608 153.6-153.6 153.6-153.6-68.608-153.6-153.6c0-12.288 1.536-23.552 4.608-35.328l-224.256-117.76c-28.16 31.232-68.096 50.688-113.152 50.688-84.992 0-153.6-68.608-153.6-153.6s68.608-153.6 153.6-153.6c45.056 0 84.992 19.968 113.152 50.688l224.256-117.76c-3.072-11.776-4.608-23.04-4.608-35.328 0-84.992 68.608-153.6 153.6-153.6s153.6 68.608 153.6 153.6-68.608 153.6-153.6 153.6c-45.056 0-84.992-19.968-113.152-50.688l-224.256 117.76c3.072 11.776 4.608 23.04 4.608 35.328s-1.536 23.552-4.608 35.328l224.256 117.76c28.16-31.232 68.096-50.688 113.152-50.688z" p-id="4181" fill="#333333"></path></svg>